<svg width="42" height="42" viewBox="0 0 42 42" fill="none" xmlns="http://www.w3.org/2000/svg">
<path d="M34.8804 22.6723C34.8804 31.3924 28.7763 35.7524 21.5212 38.2813C21.1413 38.41 20.7286 38.4038 20.3527 38.2638C13.0801 35.7524 6.97607 31.3924 6.97607 22.6723V10.4642C6.97607 10.0016 7.15982 9.55802 7.48689 9.23096C7.81395 8.90389 8.25755 8.72014 8.72009 8.72014C12.2081 8.72014 16.5682 6.62732 19.6028 3.97641C19.9722 3.66074 20.4423 3.4873 20.9282 3.4873C21.4142 3.4873 21.8842 3.66074 22.2537 3.97641C25.3057 6.64476 29.6483 8.72014 33.1364 8.72014C33.5989 8.72014 34.0425 8.90389 34.3696 9.23096C34.6966 9.55802 34.8804 10.0016 34.8804 10.4642V22.6723Z" stroke="#061693" stroke-width="3.48804" stroke-linecap="round" stroke-linejoin="round"/>
</svg>
