<svg width="82" height="82" viewBox="0 0 82 82" fill="none" xmlns="http://www.w3.org/2000/svg">
<path d="M68.3334 44.4167C68.3334 61.5 56.375 70.0417 42.1617 74.9958C41.4174 75.248 40.6089 75.236 39.8725 74.9617C25.625 70.0417 13.6667 61.5 13.6667 44.4167V20.5C13.6667 19.5938 14.0267 18.7248 14.6674 18.0841C15.3082 17.4433 16.1772 17.0833 17.0834 17.0833C23.9167 17.0833 32.4584 12.9833 38.4034 7.79C39.1272 7.17158 40.048 6.8318 41 6.8318C41.9521 6.8318 42.8728 7.17158 43.5967 7.79C49.5759 13.0175 58.0834 17.0833 64.9167 17.0833C65.8228 17.0833 66.6919 17.4433 67.3326 18.0841C67.9734 18.7248 68.3334 19.5938 68.3334 20.5V44.4167Z" stroke="#061693" stroke-width="3.33333" stroke-linecap="round" stroke-linejoin="round"/>
</svg>
